Coordinates
version=1
nRows=8
nColumns=40
inDegrees=yes

Units are S.I. units (second, meters, Newtons, ...)
Angles are in degrees.

endheader
time	pelvis_tilt	pelvis_list	pelvis_rotation	pelvis_tx	pelvis_ty	pelvis_tz	hip_flexion_r	hip_adduction_r	hip_rotation_r	knee_angle_r	knee_angle_r_beta	ankle_angle_r	subtalar_angle_r	mtp_angle_r	hip_flexion_l	hip_adduction_l	hip_rotation_l	knee_angle_l	knee_angle_l_beta	ankle_angle_l	subtalar_angle_l	mtp_angle_l	lumbar_extension	lumbar_bending	lumbar_rotation	arm_flex_r	arm_add_r	arm_rot_r	elbow_flex_r	pro_sup_r	wrist_flex_r	wrist_dev_r	arm_flex_l	arm_add_l	arm_rot_l	elbow_flex_l	pro_sup_l	wrist_flex_l	wrist_dev_l
     45.74000000	     -5.63101051	     -4.31268962	     -1.22172417	      0.94051064	      0.93355690	      0.43151775	     31.94836575	     -5.16793638	     -6.79998571	     61.65836151	     61.65836151	      5.34699055	    -15.56507540	      2.88957594	     13.46262694	     -3.34678153	     -8.03943625	     17.49668970	     17.49668970	     12.92307965	     -2.88945540	     -3.93886059	     -9.69296493	      3.10910946	      0.43163477	      0.09872241	    -13.13711876	      0.59953861	     33.93263344	     45.51737742	      0.00000000	      0.00000000	     17.84911368	    -15.03271732	     -6.02223336	     44.76305089	     45.34639835	      0.00000000	      0.00000000
     45.75285714	     -5.71334463	     -4.27774955	     -1.47601235	      0.93904058	      0.93346865	      0.43182911	     32.63021347	     -5.01200447	     -6.53336284	     59.43730443	     59.43730443	      5.43374338	    -14.95342389	      2.95229164	     13.09041301	     -3.34603338	     -8.19575636	     17.41582748	     17.41582748	     13.16751763	     -2.93457667	     -4.03296207	     -9.70137989	      3.02760695	     -0.07250317	     -1.63970878	    -13.30377100	      0.62504324	     33.10401866	     45.53829647	      0.00000000	      0.00000000	     18.72584735	    -15.70185900	     -6.25720767	     45.19869967	     45.38857184	      0.00000000	      0.00000000
     45.76571429	     -5.60018107	     -4.28165789	     -1.78517580	      0.93777072	      0.93372624	      0.43221797	     32.88618396	     -4.77373175	     -6.26737605	     56.86647052	     56.86647052	      5.31521622	    -14.30677469	      2.54323656	     12.32344313	     -3.38087466	     -8.50048333	     17.02701887	     17.02701887	     13.39839117	     -2.71360821	     -4.15135408	    -10.00917143	      2.96047056	      0.50862420	     -3.76136097	    -13.56573320	      0.62321651	     31.47449961	     45.59743444	      0.00000000	      0.00000000	     20.06969580	    -15.52786013	     -6.73449553	     46.57294278	     45.48358213	      0.00000000	      0.00000000
     45.77857143	     -5.70450462	     -4.20077751	     -2.01628940	      0.93631402	      0.93348059	      0.43262153	     33.32485125	     -4.62273343	     -6.02482534	     54.20162129	     54.20162129	      5.27521753	    -13.60420840	      2.67424893	     12.00685683	     -3.33135957	     -8.66378859	     16.97786476	     16.97786476	     13.63323779	     -2.75047933	     -4.26604003	     -9.98971346	      2.81575993	     -0.02193403	     -5.43782774	    -13.70115088	      0.57819921	     30.74854239	     45.61915417	      0.00000000	      0.00000000	     20.89884315	    -16.25026665	     -7.03788381	     47.10960817	     45.53170345	      0.00000000	      0.00000000
     45.79142857	     -5.58957789	     -4.30626293	     -2.24678648	      0.93511428	      0.93365525	      0.43310226	     33.25057294	     -4.29221370	     -5.97414911	     51.11731158	     51.11731158	      5.13306067	    -12.71779174	      2.49394740	     11.29253567	     -3.46557450	     -8.85761987	     16.66277239	     16.66277239	     13.89719304	     -2.56972707	     -4.36757909	    -10.30104827	      2.89347187	      0.28819335	     -7.32803042	    -13.89378552	      0.42322408	     29.52042076	     45.67270882	      0.00000000	      0.00000000	     21.92999219	    -16.14119869	     -7.57599106	     48.59827880	     45.62250649	      0.00000000	      0.00000000
     45.80428571	     -5.58208135	     -4.22520337	     -2.49820693	      0.93376120	      0.93344890	      0.43372200	     33.27109628	     -4.09510951	     -5.81903690	     47.92729198	     47.92729198	      4.89402345	    -11.83284768	      2.02375182	     10.81844755	     -3.43144487	     -9.14437195	     16.53939789	     16.53939789	     14.15802063	     -2.40971768	     -4.51137053	    -10.51445423	      2.71339403	      0.37063785	     -8.98539482	    -13.93275785	     -0.01715659	     28.35162311	     45.75140187	      0.00000000	      0.00000000	     22.72363424	    -16.24853503	     -8.44453049	     50.32688370	     45.75345397	      0.00000000	      0.00000000
     45.81714286	     -5.69282120	     -4.19563385	     -2.68594698	      0.93240282	      0.93304927	      0.43442541	     33.22589620	     -3.84035748	     -5.79705799	     44.39197161	     44.39197161	      4.28801956	    -11.00868014	      0.62404100	     10.52207961	     -3.46340608	     -9.35686007	     16.49510366	     16.49510366	     14.47723684	     -2.24309615	     -4.52522118	    -10.58991660	      2.61499115	     -0.13737477	    -10.08750587	    -13.80900942	     -1.40964763	     27.10362545	     45.92954676	      0.00000000	      0.00000000	     22.83613988	    -16.52809915	    -10.13645025	     52.65232875	     46.00182831	      0.00000000	      0.00000000
     45.83000000	     -5.85179772	     -4.18231607	     -2.86095776	      0.93101199	      0.93255851	      0.43529792	     33.17387025	     -3.53073039	     -5.83437933	     40.77880678	     40.77880678	      4.18385462	     -9.81211221	      0.99588709	     10.28955818	     -3.49734272	     -9.41028751	     16.44673637	     16.44673637	     14.72524777	     -2.31107574	     -4.59706949	    -10.53777673	      2.54972577	     -0.37180474	    -11.41705342	    -13.91624486	     -1.51109927	     26.52282455	     45.95315974	      0.00000000	      0.00000000	     23.58821446	    -16.94260388	    -10.36549382	     53.28829897	     46.04358177	      0.00000000	      0.00000000
